<?xml version="1.0" encoding="UTF-8"?>
<svg xmlns="http://www.w3.org/2000/svg" id="Layer_2" viewBox="0 0 600 600">
  <defs>
    <style>.cls-1{fill:#d0efed;}.cls-1,.cls-2{stroke-width:0px;}.cls-2{fill:#025654;}</style>
  </defs>
  <g id="Layer_1-2">
    <rect class="cls-2" width="600" height="600"></rect>
    <path class="cls-1" d="M352.1,267.29c-26.27,0-39.41-3.09-54.09-31.3l-18.93-36.3c44.82-28.98,57.96-74.18,57.96-118.23,0-8.89,0-18.16-.39-27.05h-82.69c.39,3.86.39,7.73.39,11.21-.39,58.73-19.32,85-45.21,93.87l-22.8,7.73V54.42h-81.14v278.17h81.14v-100.83l19.32-6.97c23.63,50.31,42.58,80.06,65.03,95.73v225.07h81.14v-71.09h44.82c58.34,0,98.14-45.59,98.14-103.55s-39.8-103.55-100.46-103.55l-42.23-.1ZM379.65,411.12h-27.82v-80.37h27.82c23.96,0,32.46,19.32,32.46,40.18s-8.5,40.18-32.46,40.18Z"></path>
  </g>
</svg>
